<svg width="409" height="1133" viewBox="0 0 409 1133" fill="none" xmlns="http://www.w3.org/2000/svg">
<g filter="url(#filter0_d_53_3806)">
<g clip-path="url(#clip0_53_3806)">
<path d="M4 8H347C374.614 8 397 30.3858 397 58V1075C397 1102.61 374.614 1125 347 1125H4V8Z" fill="url(#paint0_linear_53_3806)"/>
<path d="M378.301 1287.77C240.737 1322.35 101.187 1238.87 66.6093 1101.3C32.0311 963.737 115.518 824.187 253.083 789.609C390.647 755.031 530.196 838.518 564.775 976.083C599.353 1113.65 515.866 1253.2 378.301 1287.77ZM261.936 824.833C143.825 854.521 72.1448 974.336 101.833 1092.45C131.521 1210.56 251.336 1282.24 369.447 1252.55C487.558 1222.86 559.239 1103.05 529.551 984.936C499.862 866.826 380.047 795.145 261.936 824.833Z" fill="white" fill-opacity="0.05"/>
<path d="M502.362 1093.57C490.596 1133.59 466.278 1168.77 432.995 1193.92C399.711 1219.07 359.225 1232.86 317.51 1233.25C275.794 1233.64 235.058 1220.61 201.31 1196.09C167.563 1171.56 142.591 1136.84 130.08 1097.05C117.568 1057.25 118.179 1014.48 131.822 975.06C145.465 935.637 171.418 901.642 205.852 878.092C240.286 854.541 281.378 842.681 323.066 844.262C364.753 845.843 404.829 860.781 437.38 886.873L413.042 917.236C387.001 896.363 354.941 884.413 321.591 883.148C288.241 881.883 255.368 891.371 227.82 910.212C200.273 929.052 179.51 956.248 168.596 987.787C157.681 1019.33 157.193 1053.54 167.202 1085.37C177.211 1117.21 197.189 1144.99 224.187 1164.61C251.185 1184.23 283.774 1194.65 317.146 1194.34C350.519 1194.03 382.907 1183 409.534 1162.88C436.161 1142.76 455.615 1114.61 465.028 1082.59L502.362 1093.57Z" fill="white" fill-opacity="0.05"/>
<path d="M281.111 1159.66C253.914 1151.91 230.136 1135.2 213.643 1112.23C197.151 1089.26 188.914 1061.38 190.272 1033.14C191.63 1004.89 202.504 977.939 221.124 956.658C239.744 935.376 265.016 921.019 292.831 915.922C320.645 910.825 349.366 915.287 374.323 928.583C399.279 941.879 419.004 963.227 430.29 989.155C441.575 1015.08 443.758 1044.07 436.482 1071.39C429.207 1098.72 412.901 1122.78 390.217 1139.66L367.776 1109.51C383.655 1097.69 395.069 1080.85 400.162 1061.72C405.255 1042.59 403.727 1022.3 395.827 1004.16C387.927 986.006 374.12 971.062 356.65 961.755C339.18 952.448 319.076 949.325 299.606 952.893C280.136 956.461 262.445 966.51 249.411 981.407C236.377 996.304 228.765 1015.17 227.815 1034.94C226.864 1054.72 232.63 1074.23 244.174 1090.31C255.719 1106.39 272.364 1118.09 291.402 1123.51L281.111 1159.66Z" fill="white" fill-opacity="0.05"/>
<circle cx="317.266" cy="1039.63" r="53.1821" transform="rotate(75.8905 317.266 1039.63)" fill="white" fill-opacity="0.05"/>
<path d="M-91.6515 235.124C-8.06408 338.084 143.163 353.79 246.124 270.202C349.084 186.615 364.789 35.3874 281.202 -67.5732C197.615 -170.534 46.3874 -186.239 -56.5733 -102.651C-159.534 -19.064 -175.239 132.163 -91.6515 235.124ZM254.839 -46.1704C326.606 42.2302 313.121 172.072 224.721 243.839C136.32 315.606 6.47886 302.122 -65.2882 213.721C-137.055 125.32 -123.571 -4.5211 -35.1704 -76.2881C53.2301 -148.055 183.072 -134.571 254.839 -46.1704Z" fill="white" fill-opacity="0.05"/>
<path d="M-75.6881 20.2522C-89.308 56.8012 -90.82 96.7602 -80.0011 134.234C-69.1821 171.708 -46.6052 204.712 -15.601 228.378C15.4033 252.044 53.1931 265.118 92.1935 265.672C131.194 266.225 169.34 254.229 201.003 231.453C232.667 208.677 256.171 176.327 268.05 139.175C279.928 102.023 279.551 62.0377 266.974 25.1167C254.397 -11.8043 230.287 -43.7053 198.199 -65.8803C166.112 -88.0553 127.746 -99.3298 88.7634 -98.0407L89.9659 -61.6776C121.152 -62.7089 151.844 -53.6892 177.514 -35.9493C203.184 -18.2093 222.473 7.31154 232.534 36.8483C242.596 66.3851 242.898 98.3737 233.395 128.095C223.892 157.816 205.089 183.696 179.758 201.917C154.427 220.138 123.91 229.735 92.7099 229.292C61.5096 228.849 31.2778 218.39 6.47438 199.457C-18.329 180.525 -36.3906 154.121 -45.0457 124.142C-53.7008 94.1631 -52.4912 62.196 -41.5953 32.9567L-75.6881 20.2522Z" fill="white" fill-opacity="0.05"/>
<path d="M52.8802 193.689C77.5744 203.133 104.737 203.945 129.952 195.994C155.166 188.043 176.949 171.795 191.759 149.894C206.569 127.993 213.534 101.725 211.522 75.3636C209.509 49.0018 198.638 24.0959 180.676 4.69601C162.714 -14.7039 138.717 -27.4569 112.588 -31.4891C86.459 -35.5213 59.7341 -30.5956 36.7594 -17.513C13.7846 -4.43039 -4.08873 16.0397 -13.9543 40.5686C-23.8198 65.0974 -25.0973 92.2424 -17.5789 117.589L16.1117 107.596C10.8488 89.8533 11.7431 70.8518 18.6489 53.6816C25.5548 36.5114 38.0662 22.1823 54.1485 13.0245C70.2308 3.86667 88.9382 0.418691 107.229 3.24125C125.519 6.0638 142.317 14.9909 154.89 28.5708C167.464 42.1508 175.073 59.5849 176.482 78.0382C177.891 96.4914 173.015 114.879 162.648 130.209C152.282 145.54 137.033 156.914 119.383 162.479C101.733 168.045 82.719 167.476 65.433 160.866L52.8802 193.689Z" fill="white" fill-opacity="0.05"/>
<circle cx="49.7234" cy="49.7234" r="49.7234" transform="matrix(-0.776365 0.630283 0.630283 0.776365 100.333 13.6548)" fill="white" fill-opacity="0.05"/>
</g>
</g>
<defs>
<filter id="filter0_d_53_3806" x="0" y="0" width="409" height="1133" filterUnits="userSpaceOnUse" color-interpolation-filters="sRGB">
<feFlood flood-opacity="0" result="BackgroundImageFix"/>
<feColorMatrix in="SourceAlpha" type="matrix" values="0 0 0 0 0 0 0 0 0 0 0 0 0 0 0 0 0 0 127 0" result="hardAlpha"/>
<feOffset dx="4"/>
<feGaussianBlur stdDeviation="4"/>
<feComposite in2="hardAlpha" operator="out"/>
<feColorMatrix type="matrix" values="0 0 0 0 0 0 0 0 0 0 0 0 0 0 0 0 0 0 0.04 0"/>
<feBlend mode="normal" in2="BackgroundImageFix" result="effect1_dropShadow_53_3806"/>
<feBlend mode="normal" in="SourceGraphic" in2="effect1_dropShadow_53_3806" result="shape"/>
</filter>
<linearGradient id="paint0_linear_53_3806" x1="4" y1="8" x2="397" y2="1032" gradientUnits="userSpaceOnUse">
<stop stop-color="#8C0126"/>
<stop offset="1" stop-color="#420147"/>
</linearGradient>
<clipPath id="clip0_53_3806">
<path d="M4 8H347C374.614 8 397 30.3858 397 58V1075C397 1102.61 374.614 1125 347 1125H4V8Z" fill="white"/>
</clipPath>
</defs>
</svg>
